# xmcd
#
# Track frame offsets: 
#        150
#        12912
#        29991
#        41051
#        54133
#        81657
#        91507
#        103512
#        117316
#        145888
#        158313
#        173659
#        186846
#        197776
#        210792
#
# Disc length: 2961 seconds
#
# Revision: 0
# Processed by: cddbd v1.5.2PL0 Copyright (c) Steve Scherf et al.
# Submitted via: ExactAudioCopy v1.1
#
DISCID=bc0b8f0f
DTITLE=Various Artist - Bluesland - A Portrait in American Music [Mas
DTITLE=ters Of American Music]
DYEAR=2010
DGENRE=Blues
TTITLE0=(i´m your) hoochie coochie men
TTITLE1=little red rooster
TTITLE2=baby, please don´t go
TTITLE3=dust my broom
TTITLE4=paying the cost to the boss
TTITLE5=i´m you witch doctor
TTITLE6=my babe
TTITLE7=walking the blues
TTITLE8=first time i met the blues
TTITLE9=ninety nine
TTITLE10=born under a bad sign
TTITLE11=fannie mae
TTITLE12=love in vain
TTITLE13=the midnight special
TTITLE14=jaqueline 
EXTD=
EXTT0=
EXTT1=
EXTT2=
EXTT3=
EXTT4=
EXTT5=
EXTT6=
EXTT7=
EXTT8=
EXTT9=
EXTT10=
EXTT11=
EXTT12=
EXTT13=
EXTT14=
PLAYORDER=
